<mxfile host="app.diagrams.net" modified="2024-07-11T20:38:11.013Z" agent="Mozilla/5.0 (Macintosh; Intel Mac OS X 10_15_7) AppleWebKit/537.36 (KHTML, like Gecko) Chrome/126.0.0.0 Safari/537.36" etag="Hivs2KakO77KIJLhGdQN" version="24.6.5" type="github">
  <diagram id="prtHgNgQTEPvFCAcTncT" name="Page-1">
    <mxGraphModel dx="954" dy="640" grid="1" gridSize="10" guides="1" tooltips="1" connect="1" arrows="1" fold="1" page="1" pageScale="1" pageWidth="827" pageHeight="1169" math="0" shadow="0">
      <root>
        <mxCell id="0" />
        <mxCell id="1" parent="0" />
        <mxCell id="PWQ_n-_kXRo58elghRLx-7" value="Pattern" style="swimlane;whiteSpace=wrap;html=1;fillColor=#dae8fc;strokeColor=#6c8ebf;" vertex="1" parent="1">
          <mxGeometry x="40" y="30" width="400" height="560" as="geometry">
            <mxRectangle x="60" y="190" width="140" height="30" as="alternateBounds" />
          </mxGeometry>
        </mxCell>
        <mxCell id="PWQ_n-_kXRo58elghRLx-9" value="Topics" style="swimlane;whiteSpace=wrap;html=1;fillColor=#ffe6cc;strokeColor=#d79b00;" vertex="1" parent="PWQ_n-_kXRo58elghRLx-7">
          <mxGeometry x="10" y="30" width="380" height="180" as="geometry" />
        </mxCell>
        <mxCell id="PWQ_n-_kXRo58elghRLx-12" value="Topic 1&lt;div&gt;&lt;ul&gt;&lt;li&gt;Content 1&lt;/li&gt;&lt;li&gt;Content 2&lt;/li&gt;&lt;/ul&gt;Topic 2&lt;div&gt;&lt;ul&gt;&lt;li&gt;Content 1&lt;/li&gt;&lt;li&gt;Content 2&lt;/li&gt;&lt;/ul&gt;&lt;/div&gt;&lt;/div&gt;" style="text;html=1;align=left;verticalAlign=top;whiteSpace=wrap;rounded=0;horizontal=1;" vertex="1" parent="PWQ_n-_kXRo58elghRLx-9">
          <mxGeometry x="10" y="30" width="300" height="160" as="geometry" />
        </mxCell>
        <mxCell id="PWQ_n-_kXRo58elghRLx-11" value="Configuration" style="swimlane;whiteSpace=wrap;html=1;fillColor=#ffe6cc;strokeColor=#d79b00;" vertex="1" parent="PWQ_n-_kXRo58elghRLx-7">
          <mxGeometry x="10" y="220" width="380" height="330" as="geometry">
            <mxRectangle x="10" y="220" width="110" height="30" as="alternateBounds" />
          </mxGeometry>
        </mxCell>
        <mxCell id="PWQ_n-_kXRo58elghRLx-15" value="TOC Options" style="rounded=0;whiteSpace=wrap;html=1;fillColor=#f5f5f5;fontColor=#333333;strokeColor=#666666;" vertex="1" parent="PWQ_n-_kXRo58elghRLx-11">
          <mxGeometry x="10" y="130" width="360" height="40" as="geometry" />
        </mxCell>
        <mxCell id="PWQ_n-_kXRo58elghRLx-16" value="Global Variables" style="rounded=0;whiteSpace=wrap;html=1;fillColor=#f5f5f5;fontColor=#333333;strokeColor=#666666;" vertex="1" parent="PWQ_n-_kXRo58elghRLx-11">
          <mxGeometry x="10" y="80" width="360" height="40" as="geometry" />
        </mxCell>
        <mxCell id="PWQ_n-_kXRo58elghRLx-17" value="Designers" style="rounded=0;whiteSpace=wrap;html=1;fillColor=#f5f5f5;fontColor=#333333;strokeColor=#666666;" vertex="1" parent="PWQ_n-_kXRo58elghRLx-11">
          <mxGeometry x="10" y="230" width="360" height="40" as="geometry" />
        </mxCell>
        <mxCell id="PWQ_n-_kXRo58elghRLx-18" value="Reviewer&#39;s Block" style="rounded=0;whiteSpace=wrap;html=1;fillColor=#f5f5f5;fontColor=#333333;strokeColor=#666666;" vertex="1" parent="PWQ_n-_kXRo58elghRLx-11">
          <mxGeometry x="10" y="280" width="360" height="40" as="geometry" />
        </mxCell>
        <mxCell id="PWQ_n-_kXRo58elghRLx-23" value="GDMS Properties" style="rounded=0;whiteSpace=wrap;html=1;fillColor=#f5f5f5;fontColor=#333333;strokeColor=#666666;" vertex="1" parent="PWQ_n-_kXRo58elghRLx-11">
          <mxGeometry x="10" y="30" width="360" height="40" as="geometry" />
        </mxCell>
        <mxCell id="PWQ_n-_kXRo58elghRLx-41" value="Header Options" style="rounded=0;whiteSpace=wrap;html=1;fillColor=#f5f5f5;fontColor=#333333;strokeColor=#666666;" vertex="1" parent="PWQ_n-_kXRo58elghRLx-11">
          <mxGeometry x="10" y="180" width="360" height="40" as="geometry" />
        </mxCell>
        <mxCell id="PWQ_n-_kXRo58elghRLx-24" value="Report" style="swimlane;whiteSpace=wrap;html=1;fillColor=#d5e8d4;strokeColor=#82b366;" vertex="1" parent="1">
          <mxGeometry x="570" y="30" width="400" height="560" as="geometry">
            <mxRectangle x="60" y="190" width="140" height="30" as="alternateBounds" />
          </mxGeometry>
        </mxCell>
        <mxCell id="PWQ_n-_kXRo58elghRLx-25" value="Topics" style="swimlane;whiteSpace=wrap;html=1;fillColor=#ffe6cc;strokeColor=#d79b00;" vertex="1" parent="PWQ_n-_kXRo58elghRLx-24">
          <mxGeometry x="10" y="30" width="380" height="180" as="geometry" />
        </mxCell>
        <mxCell id="PWQ_n-_kXRo58elghRLx-26" value="Topic 1&lt;div&gt;&lt;ul&gt;&lt;li&gt;Content 1&lt;/li&gt;&lt;li&gt;Content 2&lt;/li&gt;&lt;/ul&gt;Topic 2&lt;div&gt;&lt;ul&gt;&lt;li&gt;Content 1&lt;/li&gt;&lt;li&gt;Content 2&lt;/li&gt;&lt;/ul&gt;&lt;/div&gt;&lt;/div&gt;" style="text;html=1;align=left;verticalAlign=top;whiteSpace=wrap;rounded=0;horizontal=1;" vertex="1" parent="PWQ_n-_kXRo58elghRLx-25">
          <mxGeometry x="10" y="30" width="300" height="160" as="geometry" />
        </mxCell>
        <mxCell id="PWQ_n-_kXRo58elghRLx-27" value="Configuration" style="swimlane;whiteSpace=wrap;html=1;fillColor=#ffe6cc;strokeColor=#d79b00;" vertex="1" parent="PWQ_n-_kXRo58elghRLx-24">
          <mxGeometry x="10" y="220" width="380" height="330" as="geometry">
            <mxRectangle x="10" y="220" width="110" height="30" as="alternateBounds" />
          </mxGeometry>
        </mxCell>
        <mxCell id="PWQ_n-_kXRo58elghRLx-28" value="TOC Options" style="rounded=0;whiteSpace=wrap;html=1;fillColor=#f5f5f5;fontColor=#333333;strokeColor=#666666;" vertex="1" parent="PWQ_n-_kXRo58elghRLx-27">
          <mxGeometry x="10" y="130" width="360" height="40" as="geometry" />
        </mxCell>
        <mxCell id="PWQ_n-_kXRo58elghRLx-29" value="Global Variables" style="rounded=0;whiteSpace=wrap;html=1;fillColor=#f5f5f5;fontColor=#333333;strokeColor=#666666;" vertex="1" parent="PWQ_n-_kXRo58elghRLx-27">
          <mxGeometry x="10" y="80" width="360" height="40" as="geometry" />
        </mxCell>
        <mxCell id="PWQ_n-_kXRo58elghRLx-32" value="GDMS Properties" style="rounded=0;whiteSpace=wrap;html=1;fillColor=#f5f5f5;fontColor=#333333;strokeColor=#666666;" vertex="1" parent="PWQ_n-_kXRo58elghRLx-27">
          <mxGeometry x="10" y="30" width="360" height="40" as="geometry" />
        </mxCell>
        <mxCell id="PWQ_n-_kXRo58elghRLx-42" value="Header Options" style="rounded=0;whiteSpace=wrap;html=1;fillColor=#f5f5f5;fontColor=#333333;strokeColor=#666666;" vertex="1" parent="PWQ_n-_kXRo58elghRLx-27">
          <mxGeometry x="10" y="180" width="360" height="40" as="geometry" />
        </mxCell>
        <mxCell id="PWQ_n-_kXRo58elghRLx-33" style="rounded=0;orthogonalLoop=1;jettySize=auto;html=1;exitX=1;exitY=0.5;exitDx=0;exitDy=0;entryX=0;entryY=0.5;entryDx=0;entryDy=0;shape=flexArrow;fillColor=#ffe6cc;strokeColor=#d79b00;" edge="1" parent="1" source="PWQ_n-_kXRo58elghRLx-9" target="PWQ_n-_kXRo58elghRLx-25">
          <mxGeometry relative="1" as="geometry" />
        </mxCell>
        <mxCell id="PWQ_n-_kXRo58elghRLx-34" style="rounded=0;orthogonalLoop=1;jettySize=auto;html=1;entryX=0;entryY=0.5;entryDx=0;entryDy=0;shape=flexArrow;fillColor=#f5f5f5;strokeColor=#666666;" edge="1" parent="1" source="PWQ_n-_kXRo58elghRLx-23" target="PWQ_n-_kXRo58elghRLx-32">
          <mxGeometry relative="1" as="geometry" />
        </mxCell>
        <mxCell id="PWQ_n-_kXRo58elghRLx-44" style="edgeStyle=orthogonalEdgeStyle;rounded=0;orthogonalLoop=1;jettySize=auto;html=1;entryX=0;entryY=0.5;entryDx=0;entryDy=0;fillColor=#f5f5f5;strokeColor=#666666;shape=flexArrow;" edge="1" parent="1" source="PWQ_n-_kXRo58elghRLx-16" target="PWQ_n-_kXRo58elghRLx-29">
          <mxGeometry relative="1" as="geometry" />
        </mxCell>
        <mxCell id="PWQ_n-_kXRo58elghRLx-45" style="rounded=0;orthogonalLoop=1;jettySize=auto;html=1;entryX=0;entryY=0.5;entryDx=0;entryDy=0;shape=flexArrow;dashed=1;dashPattern=8 8;fillColor=#f5f5f5;strokeColor=#666666;" edge="1" parent="1" source="PWQ_n-_kXRo58elghRLx-15" target="PWQ_n-_kXRo58elghRLx-28">
          <mxGeometry relative="1" as="geometry" />
        </mxCell>
        <mxCell id="PWQ_n-_kXRo58elghRLx-46" style="rounded=0;orthogonalLoop=1;jettySize=auto;html=1;entryX=0;entryY=0.5;entryDx=0;entryDy=0;shape=flexArrow;dashed=1;dashPattern=8 8;fillColor=#f5f5f5;strokeColor=#666666;" edge="1" parent="1" source="PWQ_n-_kXRo58elghRLx-41" target="PWQ_n-_kXRo58elghRLx-42">
          <mxGeometry relative="1" as="geometry" />
        </mxCell>
      </root>
    </mxGraphModel>
  </diagram>
</mxfile>
